<svg viewBox="0 0 540 490" xmlns="http://www.w3.org/2000/svg">
<defs>
  <radialGradient id="rg" cx="35%" cy="35%" r="70%">
    <stop offset="0%" stop-color="#D01515"/>
    <stop offset="100%" stop-color="#8B0000"/>
  </radialGradient>
  <radialGradient id="gg" cx="65%" cy="35%" r="70%">
    <stop offset="0%" stop-color="#BBBBBB"/>
    <stop offset="100%" stop-color="#606060"/>
  </radialGradient>
  <radialGradient id="eR" cx="42%" cy="38%" r="62%">
    <stop offset="0%" stop-color="#EE3333"/>
    <stop offset="100%" stop-color="#880000"/>
  </radialGradient>
  <radialGradient id="eG" cx="42%" cy="38%" r="62%">
    <stop offset="0%" stop-color="#CCCCCC"/>
    <stop offset="100%" stop-color="#666"/>
  </radialGradient>
  <linearGradient id="lns" x1="0" y1="0" x2="0" y2="1">
    <stop offset="0%"   stop-color="#88CCEE"/>
    <stop offset="30%"  stop-color="#55AADD"/>
    <stop offset="65%"  stop-color="#2266AA"/>
    <stop offset="100%" stop-color="#0A2244"/>
  </linearGradient>
  <linearGradient id="sheen" x1="0" y1="0" x2="1" y2="0.6">
    <stop offset="0%"   stop-color="rgba(255,255,255,0.55)"/>
    <stop offset="35%"  stop-color="rgba(255,255,255,0.15)"/>
    <stop offset="100%" stop-color="rgba(255,255,255,0.0)"/>
  </linearGradient>
  <filter id="sh">
    <feDropShadow dx="2" dy="5" stdDeviation="6" flood-color="rgba(0,0,0,0.35)"/>
  </filter>
  <filter id="gs">
    <feDropShadow dx="1" dy="2" stdDeviation="3" flood-color="rgba(0,0,0,0.55)"/>
  </filter>
</defs>

<!-- BACKGROUND RECTANGLES -->
<rect x="0" y="0" width="270" height="490" rx="28" fill="#CC1111"/>
<rect x="270" y="0" width="270" height="490" rx="28" fill="#888888"/>

<!-- LEFT BODY OUTER (RED) -->
<path d="M 88.63,30.54 L 92.15,29.24 L 246.52,29.89 L 246.52,143.62 L 245.35,144.92 L 226.57,144.92 L 225.98,148.17 L 219.52,135.82 L 210.13,126.07 L 202.5,121.53 L 187.83,118.28 L 186.65,116.33 L 186.65,106.58 L 184.3,105.28 L 182.54,108.53 L 182.54,117.63 L 166.11,121.53 L 156.13,128.67 L 148.5,137.77 L 145.57,143.62 L 143.22,144.92 L 140.28,164.42 L 126.2,165.07 L 126.2,169.62 L 129.13,168.32 L 130.3,169.62 L 140.28,170.27 L 140.28,176.11 L 143.22,186.51 L 148.5,196.91 L 154.96,204.06 L 154.37,205.36 L 134.41,205.36 L 133.83,209.26 L 157.3,209.26 L 157.89,206.66 L 166.11,212.51 L 162.0,213.81 L 162.0,215.11 L 167.28,215.76 L 166.7,213.81 L 168.46,213.16 L 177.85,216.41 L 196.63,215.11 L 208.96,209.26 L 212.48,206.01 L 213.07,209.26 L 242.41,209.26 L 242.41,205.36 L 214.24,204.71 L 223.63,191.71 L 228.91,176.11 L 228.91,158.57 L 226.57,149.47 L 246.52,150.12 L 246.52,165.07 L 233.02,165.72 L 233.61,169.62 L 246.52,169.62 L 246.52,296.34 L 270.0,334.68 L 270.0,434.76 L 267.65,441.26 L 262.96,447.76 L 254.15,454.26 L 245.93,456.86 L 208.37,456.86 L 201.33,454.26 L 192.52,446.46 L 186.65,434.11 L 186.65,341.18 L 143.22,295.69 L 94.5,295.69 L 93.33,294.39 L 89.22,294.39 L 83.35,290.49 L 78.07,284.64 L 73.96,272.29 L 73.96,218.36 L 75.13,213.81 L 71.02,199.51 L 65.74,193.66 L 61.63,191.71 L 42.26,191.71 L 38.15,190.41 L 31.11,185.86 L 25.24,178.71 L 23.48,173.51 L 23.48,150.12 L 47.54,148.82 L 47.54,144.92 L 24.65,144.92 L 23.48,143.62 L 24.07,118.93 L 31.7,107.88 L 38.15,103.98 L 44.61,102.03 L 62.22,102.03 L 66.33,100.08 L 71.02,94.88 L 73.96,87.08 L 74.54,81.23 L 73.96,52.64 L 79.24,38.34 Z" fill="url(#rg)" stroke="#770000" stroke-width="1.5" filter="url(#sh)"/>
<!-- LEFT BODY INNER CAVITY (WHITE) -->
<path d="M 88.63,30.54 L 79.83,37.69 L 75.72,46.14 L 75.13,80.58 L 71.61,93.58 L 66.91,99.43 L 61.04,102.68 L 38.15,103.98 L 30.52,108.53 L 25.24,115.68 L 24.07,175.46 L 30.52,185.86 L 38.15,190.41 L 61.63,191.71 L 65.74,193.66 L 71.61,200.81 L 75.13,213.16 L 75.13,274.89 L 76.89,282.69 L 82.17,289.84 L 89.22,294.39 L 95.67,295.69 L 143.8,295.69 L 186.65,341.18 L 186.65,434.11 L 193.7,448.41 L 204.26,455.56 L 246.52,456.21 L 254.15,454.26 L 263.54,447.11 L 270.0,434.76 L 270.0,334.03 L 246.52,296.34 L 245.93,29.24 Z" fill="white" stroke="none"/>

<!-- RIGHT BODY OUTER (GRAY) -->
<path d="M 336.91,29.24 L 491.28,29.89 L 491.28,144.27 L 482.48,144.92 L 481.89,146.22 L 482.48,148.82 L 487.17,150.12 L 486.0,155.97 L 484.24,157.92 L 486.59,157.92 L 487.76,160.52 L 490.11,157.92 L 488.35,150.12 L 491.28,150.12 L 491.28,295.04 L 515.35,334.68 L 515.35,434.11 L 513.59,439.96 L 509.48,445.81 L 499.5,454.26 L 490.7,456.86 L 453.13,456.86 L 445.5,453.61 L 438.46,447.76 L 431.41,432.81 L 431.41,340.53 L 388.57,295.69 L 339.26,295.69 L 327.52,289.84 L 321.65,281.39 L 320.48,276.84 L 320.48,213.81 L 316.37,200.16 L 312.26,194.96 L 306.39,191.71 L 287.61,191.71 L 283.5,190.41 L 276.46,185.86 L 270.0,177.41 L 268.83,174.16 L 269.41,149.47 L 292.89,149.47 L 293.48,151.42 L 295.24,151.42 L 294.07,144.92 L 268.83,144.27 L 268.83,120.23 L 270.0,116.33 L 274.7,109.83 L 283.5,103.98 L 289.96,102.03 L 307.57,102.03 L 312.26,99.43 L 316.37,94.23 L 320.48,80.58 L 320.48,47.44 L 321.65,42.89 L 328.11,33.79 Z" fill="url(#gg)" stroke="#444" stroke-width="1.5"/>
<!-- RIGHT BODY INNER CAVITY (WHITE) -->
<path d="M 333.39,30.54 L 328.11,33.79 L 321.65,42.24 L 319.89,88.38 L 310.5,100.73 L 305.8,102.68 L 282.91,103.98 L 275.28,109.18 L 270.0,116.33 L 268.83,174.81 L 275.28,185.21 L 288.2,191.71 L 306.98,191.71 L 311.67,194.31 L 317.54,202.11 L 320.48,213.16 L 320.48,276.84 L 321.65,282.04 L 326.93,289.84 L 340.43,295.69 L 389.15,295.69 L 431.41,340.53 L 432.59,435.41 L 438.46,447.76 L 446.09,454.26 L 453.13,456.21 L 488.35,456.21 L 499.5,454.26 L 508.3,447.76 L 514.76,435.41 L 514.76,333.38 L 491.28,295.69 L 491.28,29.24 Z" fill="white" stroke="none"/>

<!-- LEFT EYE -->
<circle cx="184.9" cy="168.3" r="54.4" fill="white" stroke="#333" stroke-width="2"/>
<circle cx="184.9" cy="168.3" r="43.4" fill="url(#eR)"/>
<path d="M184.9,168.3 L184.9,124.9 A43.4,43.4 0 0,1 221.8,146.6 Z" fill="#E07010" opacity="0.92"/>
<circle cx="184.9" cy="168.3" r="13.9" fill="#660000"/>
<circle cx="184.9" cy="168.3" r="5.2" fill="#110000"/>

<!-- RIGHT EYE -->
<circle cx="429.1" cy="168.3" r="51.5" fill="white" stroke="#333" stroke-width="2"/>
<circle cx="429.1" cy="168.3" r="40.5" fill="url(#eG)"/>
<path d="M429.1,168.3 L429.1,127.8 A40.5,40.5 0 0,1 463.5,148.1 Z" fill="#E07010" opacity="0.92"/>
<circle cx="429.1" cy="168.3" r="13.0" fill="#333"/>
<circle cx="429.1" cy="168.3" r="4.9" fill="#111"/>

<!-- SUNGLASSES — AVIATOR STYLE -->


<!-- TOP BAR and BRIDGE drawn first so lenses render ON TOP -->
<line x1="55" y1="113" x2="485" y2="113" stroke="#111111" stroke-width="3" stroke-linecap="round"/>
<path d="M 252,113 C 252,123 247,133 245,138 C 243,143 245,148 250,148 C 255,148 259,144 259,139 C 259,134 263,129 270,129 C 277,129 281,134 281,139 C 281,144 285,148 290,148 C 295,148 297,143 295,138 C 293,133 288,123 288,113"
      stroke="#111111" stroke-width="3" fill="none" stroke-linecap="round"/>

<!-- LEFT LENS: spread a little further left -->
<path d="M 55,118 C 87,108 127,104 162,105 C 192,106 218,110 228,118
         C 235,132 235,158 229,184
         C 217,226 189,260 163,272
         C 147,279 115,279 99,272
         C 69,258 47,220 43,184
         C 39,152 45,128 55,118 Z"
      fill="url(#lns)" stroke="#111111" stroke-width="4" filter="url(#gs)"/>
<path d="M 55,118 C 87,108 127,104 162,105 C 192,106 218,110 228,118
         C 235,132 235,158 229,184
         C 217,226 189,260 163,272
         C 147,279 115,279 99,272
         C 69,258 47,220 43,184
         C 39,152 45,128 55,118 Z"
      fill="url(#sheen)"/>

<!-- RIGHT LENS: spread a little further right -->
<path d="M 485,118 C 453,108 413,104 378,105 C 348,106 322,110 312,118
         C 305,132 305,158 311,184
         C 323,226 351,260 377,272
         C 393,279 425,279 441,272
         C 471,258 493,220 497,184
         C 501,152 495,128 485,118 Z"
      fill="url(#lns)" stroke="#111111" stroke-width="4" filter="url(#gs)"/>
<path d="M 485,118 C 453,108 413,104 378,105 C 348,106 322,110 312,118
         C 305,132 305,158 311,184
         C 323,226 351,260 377,272
         C 393,279 425,279 441,272
         C 471,258 493,220 497,184
         C 501,152 495,128 485,118 Z"
      fill="url(#sheen)"/>

<!-- Left temple arm -->
<path d="M 55,113 C 35,111 18,109 10,108" stroke="#111111" stroke-width="3.5" fill="none" stroke-linecap="round"/>
<!-- Right temple arm -->
<path d="M 485,113 C 505,111 522,109 530,108" stroke="#111111" stroke-width="3.5" fill="none" stroke-linecap="round"/>

<!-- Hinge rivets -->
<circle cx="55"  cy="113" r="5" fill="#111111" stroke="#333" stroke-width="1.2"/>
<circle cx="485" cy="113" r="5" fill="#111111" stroke="#333" stroke-width="1.2"/>

</svg>